<?xml version="1.0" encoding="UTF-8" standalone="no"?>
<!-- Created with Inkscape (http://www.inkscape.org/) -->

<svg
   xmlns:dc="http://purl.org/dc/elements/1.1/"
   xmlns:cc="http://creativecommons.org/ns#"
   xmlns:rdf="http://www.w3.org/1999/02/22-rdf-syntax-ns#"
   xmlns:svg="http://www.w3.org/2000/svg"
   xmlns="http://www.w3.org/2000/svg"
   xmlns:xlink="http://www.w3.org/1999/xlink"
   xmlns:sodipodi="http://sodipodi.sourceforge.net/DTD/sodipodi-0.dtd"
   xmlns:inkscape="http://www.inkscape.org/namespaces/inkscape"
   version="1.0"
   width="96"
   height="96"
   id="svg2408"
   inkscape:version="0.48.4 r9939"
   sodipodi:docname="add_chat.svg">
  <sodipodi:namedview
     pagecolor="#ffffff"
     bordercolor="#666666"
     borderopacity="1"
     objecttolerance="10"
     gridtolerance="10"
     guidetolerance="10"
     inkscape:pageopacity="0"
     inkscape:pageshadow="2"
     inkscape:window-width="1242"
     inkscape:window-height="682"
     id="namedview65"
     showgrid="false"
     inkscape:zoom="3.4766083"
     inkscape:cx="0.89738087"
     inkscape:cy="47.285142"
     inkscape:window-x="48"
     inkscape:window-y="0"
     inkscape:window-maximized="0"
     inkscape:current-layer="layer3" />
  <defs
     id="defs2410">
    <linearGradient
       x1="45.447727"
       y1="92.539597"
       x2="45.447727"
       y2="7.0165396"
       id="ButtonShadow"
       gradientUnits="userSpaceOnUse"
       gradientTransform="scale(1.0058652,0.994169)">
      <stop
         id="stop3750"
         style="stop-color:#000000;stop-opacity:1"
         offset="0" />
      <stop
         id="stop3752"
         style="stop-color:#000000;stop-opacity:0.58823532"
         offset="1" />
    </linearGradient>
    <linearGradient
       id="linearGradient3737">
      <stop
         id="stop3739"
         style="stop-color:#ffffff;stop-opacity:1"
         offset="0" />
      <stop
         id="stop3741"
         style="stop-color:#ffffff;stop-opacity:0"
         offset="1" />
    </linearGradient>
    <linearGradient
       id="linearGradient3700">
      <stop
         id="stop3702"
         style="stop-color:#da8714;stop-opacity:1"
         offset="0" />
      <stop
         id="stop3704"
         style="stop-color:#f4d468;stop-opacity:1"
         offset="1" />
    </linearGradient>
    <filter
       color-interpolation-filters="sRGB"
       id="filter3174">
      <feGaussianBlur
         id="feGaussianBlur3176"
         stdDeviation="1.71" />
    </filter>
    <linearGradient
       x1="36.357143"
       y1="6"
       x2="36.357143"
       y2="63.893143"
       id="linearGradient3188"
       xlink:href="#linearGradient3737"
       gradientUnits="userSpaceOnUse" />
    <filter
       x="-0.192"
       y="-0.192"
       width="1.3839999"
       height="1.3839999"
       color-interpolation-filters="sRGB"
       id="filter3794">
      <feGaussianBlur
         id="feGaussianBlur3796"
         stdDeviation="5.28" />
    </filter>
    <linearGradient
       x1="48"
       y1="20.220806"
       x2="48"
       y2="138.66119"
       id="linearGradient3613"
       xlink:href="#linearGradient3737"
       gradientUnits="userSpaceOnUse" />
    <radialGradient
       cx="48"
       cy="90.171875"
       r="42"
       fx="48"
       fy="90.171875"
       id="radialGradient3619"
       xlink:href="#linearGradient3737"
       gradientUnits="userSpaceOnUse"
       gradientTransform="matrix(1.1573129,0,0,0.99590774,-7.5510206,0.19713193)" />
    <clipPath
       id="clipPath3613">
      <rect
         width="84"
         height="84"
         rx="6"
         ry="6"
         x="6"
         y="6"
         id="rect3615"
         style="fill:#ffffff;fill-opacity:1;fill-rule:nonzero;stroke:none" />
    </clipPath>
    <linearGradient
       x1="48"
       y1="90"
       x2="48"
       y2="5.9877172"
       id="linearGradient3617"
       xlink:href="#linearGradient3700"
       gradientUnits="userSpaceOnUse" />
    <linearGradient
       x1="45.447727"
       y1="92.539597"
       x2="45.447727"
       y2="7.0165396"
       id="ButtonShadow-0"
       gradientUnits="userSpaceOnUse"
       gradientTransform="matrix(1.0058652,0,0,0.994169,100,0)">
      <stop
         id="stop3750-8"
         style="stop-color:#000000;stop-opacity:1"
         offset="0" />
      <stop
         id="stop3752-5"
         style="stop-color:#000000;stop-opacity:0.58823532"
         offset="1" />
    </linearGradient>
    <linearGradient
       x1="32.251034"
       y1="6.1317081"
       x2="32.251034"
       y2="90.238609"
       id="linearGradient3780"
       xlink:href="#ButtonShadow-0"
       gradientUnits="userSpaceOnUse"
       gradientTransform="matrix(1.0238095,0,0,1.0119048,-1.1428571,-98.071429)" />
    <linearGradient
       x1="32.251034"
       y1="6.1317081"
       x2="32.251034"
       y2="90.238609"
       id="linearGradient3772"
       xlink:href="#ButtonShadow-0"
       gradientUnits="userSpaceOnUse"
       gradientTransform="matrix(1.0238095,0,0,1.0119048,-1.1428571,-98.071429)" />
    <linearGradient
       x1="32.251034"
       y1="6.1317081"
       x2="32.251034"
       y2="90.238609"
       id="linearGradient3725"
       xlink:href="#ButtonShadow-0"
       gradientUnits="userSpaceOnUse"
       gradientTransform="matrix(1.0238095,0,0,1.0119048,-1.1428571,-98.071429)" />
    <linearGradient
       x1="32.251034"
       y1="6.1317081"
       x2="32.251034"
       y2="90.238609"
       id="linearGradient3721"
       xlink:href="#ButtonShadow-0"
       gradientUnits="userSpaceOnUse"
       gradientTransform="translate(0,-97)" />
    <linearGradient
       x1="32.251034"
       y1="6.1317081"
       x2="32.251034"
       y2="90.238609"
       id="linearGradient3059"
       xlink:href="#ButtonShadow-0"
       gradientUnits="userSpaceOnUse"
       gradientTransform="matrix(1.0238095,0,0,1.0119048,-1.1428571,-98.071429)" />
    <linearGradient
       x1="56"
       y1="16"
       x2="56"
       y2="80"
       id="linearGradient3996"
       xlink:href="#linearGradient3853-5"
       gradientUnits="userSpaceOnUse"
       gradientTransform="matrix(0.58779071,0,0,0.59976762,-1.7139535,28.375257)" />
    <linearGradient
       id="linearGradient3853-5">
      <stop
         id="stop3855-0"
         style="stop-color:#000000;stop-opacity:1"
         offset="0" />
      <stop
         id="stop3857-4"
         style="stop-color:#313131;stop-opacity:1"
         offset="1" />
    </linearGradient>
    <linearGradient
       x1="56"
       y1="16"
       x2="56"
       y2="80"
       id="linearGradient3111"
       xlink:href="#linearGradient3853-5"
       gradientUnits="userSpaceOnUse"
       gradientTransform="matrix(0.88281208,0,0,0.89965143,5.6250204,11.562884)" />
    <linearGradient
       x1="56"
       y1="16"
       x2="56"
       y2="80"
       id="linearGradient4004"
       xlink:href="#linearGradient3853-5"
       gradientUnits="userSpaceOnUse"
       gradientTransform="matrix(0.58779071,0,0,0.59976762,41.286046,28.375257)" />
    <clipPath
       id="clipPath4097">
      <path
         d="m 12,76 c -3.324,0 -6,2.676 -6,6 l 0,72 c 0,3.324 2.676,6 6,6 l 72,0 c 3.324,0 6,-2.676 6,-6 l 0,-72 c 0,-3.324 -2.676,-6 -6,-6 l -72,0 z m 36,18 c 6.161551,0 11.156265,4.722076 11.15625,10.53125 -0.02459,0.73006 -0.09742,1.52079 -0.15625,2.375 0.841854,0.6383 0.950993,2.53409 0.125,4.5 -0.298129,0.70957 -0.689887,1.31386 -1.09375,1.8125 -0.13063,0.61672 -0.206804,1.09428 -0.375,1.8125 -0.457646,1.38687 -2.25736,4.11893 -3.625,6.25 -0.08814,1.41731 -0.04816,2.84228 0.125,4.28125 1.630607,1.43231 4.247302,2.62582 6.875,3.71875 1.665078,-0.6585 3.295977,-1.37077 4.34375,-2.25 0.20095,-1.18501 0.22488,-2.20822 0.125,-3.25 -1.001552,-1.35046 -2.16226,-2.91484 -2.4375,-3.75 -0.08885,-0.41131 -0.14529,-0.69786 -0.21875,-1.0625 -0.01032,-0.0115 -0.02099,-0.0195 -0.03125,-0.0313 -0.307775,-0.35021 -0.620439,-0.78033 -0.84375,-1.3125 -0.57912,-1.3801 -0.492997,-2.77493 0.15625,-3.125 -0.04563,-0.55204 -0.0526,-1.02493 -0.0625,-1.46875 0,-3.8727 3.335039,-7.0312 7.4375,-7.0312 4.10246,0 7.437517,3.1585 7.4375,7.03125 -0.01637,0.48671 -0.08583,1.02428 -0.125,1.59375 0.560519,0.42553 0.643709,1.68939 0.09375,3 -0.1985,0.47305 -0.449851,0.85508 -0.71875,1.1875 -0.08698,0.41115 -0.138013,0.73994 -0.25,1.21875 -0.304709,0.92458 -1.526904,2.73554 -2.4375,4.15625 -0.05869,0.94487 -0.02154,1.88444 0.09375,2.84375 2.84746,2.50437 10.26949,3.8566 10.28125,6 L 84,134 69.4375,134 c 0.07629,0.18396 0.1239,0.37077 0.125,0.5625 l 0.21875,1.4375 -43.5625,0 0.21875,-1.4375 c -8.5e-4,-0.19234 0.0388,-0.38079 0.09375,-0.5625 L 12,134 l 0.125,-0.96875 c -0.01105,-2.50437 7.367193,-3.5809 10.25,-6 0.20095,-1.18501 0.22488,-2.20822 0.125,-3.25 -1.001552,-1.35046 -2.16226,-2.91484 -2.4375,-3.75 -0.08885,-0.41131 -0.14529,-0.69786 -0.21875,-1.0625 -0.01032,-0.0115 -0.02099,-0.0195 -0.03125,-0.0313 -0.307775,-0.35021 -0.620439,-0.78033 -0.84375,-1.3125 -0.57912,-1.3801 -0.492997,-2.77493 0.15625,-3.125 -0.04563,-0.55204 -0.0526,-1.02493 -0.0625,-1.46875 0,-3.8727 3.335039,-7.0312 7.4375,-7.0312 4.10246,0 7.437517,3.1585 7.4375,7.03125 -0.01637,0.48671 -0.08583,1.02428 -0.125,1.59375 0.560519,0.42553 0.643709,1.68939 0.09375,3 -0.1985,0.47305 -0.449851,0.85508 -0.71875,1.1875 -0.08698,0.41115 -0.138013,0.73994 -0.25,1.21875 -0.304709,0.92458 -1.526904,2.73554 -2.4375,4.15625 -0.05869,0.94487 -0.02154,1.88444 0.09375,2.84375 0.943649,0.82995 2.395521,1.53906 3.90625,2.1875 2.75881,-1.07769 5.575089,-2.20017 7.3125,-3.65625 0.301816,-1.77751 0.30626,-3.34357 0.15625,-4.90625 -1.504247,-2.02569 -3.211613,-4.37225 -3.625,-5.625 -0.13344,-0.61696 -0.202159,-1.04679 -0.3125,-1.59375 -0.01552,-0.0171 -0.04709,-0.0449 -0.0625,-0.0625 -0.462251,-0.52531 -0.945855,-1.17049 -1.28125,-1.96875 -0.869788,-2.07016 -0.725114,-4.0999 0.25,-4.625 -0.06853,-0.82806 -0.07877,-1.58427 -0.09375,-2.25 C 36.84375,98.722124 41.838449,94 48,94 z"
         inkscape:connector-curvature="0"
         id="path4099"
         style="fill:url(#linearGradient4101);fill-opacity:1;fill-rule:nonzero;stroke:none" />
    </clipPath>
    <filter
       x="-0.19"
       y="-0.32571429"
       width="1.38"
       height="1.6514286"
       color-interpolation-filters="sRGB"
       id="filter4103">
      <feGaussianBlur
         id="feGaussianBlur4105"
         stdDeviation="5.7" />
    </filter>
  </defs>
  <metadata
     id="metadata2413">
    <rdf:RDF>
      <cc:Work
         rdf:about="">
        <dc:format>image/svg+xml</dc:format>
        <dc:type
           rdf:resource="http://purl.org/dc/dcmitype/StillImage" />
        <dc:title></dc:title>
      </cc:Work>
    </rdf:RDF>
  </metadata>
  <g
     id="layer2"
     style="display:none">
    <rect
       width="86"
       height="85"
       rx="6"
       ry="6"
       x="5"
       y="7"
       id="rect3745"
       style="opacity:0.9;fill:url(#ButtonShadow);fill-opacity:1;fill-rule:nonzero;stroke:none;filter:url(#filter3174)" />
  </g>
  <g
     id="layer1"
     transform="matrix(1.1646489,0,0,1.1646489,-7.9031477,-7.9031477)" />
  <g
     id="layer5"
     style="display:none">
    <rect
       width="66"
       height="66"
       rx="12"
       ry="12"
       x="15"
       y="15"
       clip-path="url(#clipPath3613)"
       id="rect3171"
       style="opacity:0.1;fill:url(#linearGradient3613);fill-opacity:1;fill-rule:nonzero;stroke:#ffffff;stroke-width:0.5;stroke-linecap:round;stroke-linejoin:miter;stroke-miterlimit:4;stroke-opacity:1;stroke-dasharray:none;stroke-dashoffset:0;filter:url(#filter3794)" />
  </g>
  <g
     id="layer3"
     transform="matrix(1.1646489,0,0,1.1646489,-7.9031477,-7.9031477)">
    <path
       d="m 70.384987,37.629541 c -4.271327,0 -7.73105,3.27668 -7.73105,7.30884 0.01031,0.462092 0.01337,0.978103 0.06088,1.55287 -0.675971,0.364475 -0.765289,1.793056 -0.162331,3.229969 0.232502,0.554079 0.552089,1.001902 0.872533,1.366525 0.01068,0.01218 0.02983,0.02953 0.04057,0.04141 0.07648,0.379648 0.1307,0.669122 0.223204,1.097361 0.28657,0.86954 1.473366,2.507183 2.516144,3.913232 0.103991,1.084665 0.107767,2.161822 -0.101451,3.395607 -3.00147,2.51867 -10.684816,3.645435 -10.673309,6.252888 l -0.142042,0.993841 30.193702,0 -0.142039,-0.993836 c -0.01224,-2.231633 -7.728935,-3.645431 -10.693603,-6.25289 -0.120037,-0.9988 -0.142271,-1.97704 -0.08117,-2.960804 0.948078,-1.479195 2.198891,-3.385401 2.516142,-4.348036 0.116597,-0.498523 0.173232,-0.834927 0.263788,-1.263 0.279968,-0.346109 0.544115,-0.749779 0.750785,-1.242295 0.572597,-1.364557 0.502422,-2.683396 -0.08117,-3.126444 0.04078,-0.592914 0.08441,-1.149652 0.101451,-1.656395 1.8e-5,-4.032159 -3.45971,-7.30884 -7.731036,-7.30884 z"
       inkscape:connector-curvature="0"
       id="path4002"
       style="opacity:0.6;fill:#ffffff;fill-opacity:1;stroke:none;display:inline;enable-background:new" />
    <path
       d="m 48,25.135595 c -6.415174,0 -11.611385,4.915019 -11.611385,10.963261 0.0156,0.693137 0.02008,1.467155 0.09143,2.329304 -1.015252,0.546712 -1.149399,2.689584 -0.243809,4.844954 0.349201,0.831119 0.829193,1.502853 1.310471,2.049788 0.01604,0.01828 0.04479,0.0443 0.06095,0.06211 0.114883,0.569472 0.196303,1.003682 0.335235,1.64604 0.430403,1.304312 2.212869,3.760776 3.779034,5.869849 0.156184,1.626998 0.161859,3.242733 -0.152381,5.093411 -4.507953,3.778003 -16.047693,5.468151 -16.030412,9.379332 l -0.213336,1.490765 45.348395,0 -0.213332,-1.490755 c -0.01839,-3.347447 -11.608207,-5.468144 -16.060889,-9.379334 -0.180284,-1.498199 -0.213678,-2.965559 -0.121907,-4.441205 1.423935,-2.218794 3.302549,-5.078102 3.779033,-6.522054 0.175119,-0.747785 0.260181,-1.252391 0.396188,-1.8945 0.420487,-0.519164 0.817214,-1.124669 1.127615,-1.863443 0.859992,-2.046835 0.754598,-4.025094 -0.121909,-4.689667 0.06125,-0.889371 0.126773,-1.724477 0.15238,-2.484591 C 59.611392,30.050616 54.415174,25.135595 48,25.135595 z"
       inkscape:connector-curvature="0"
       id="path3798-8"
       style="fill:#ffffff;fill-opacity:1;stroke:none;display:inline;enable-background:new" />
    <path
       d="m 25.615015,37.629541 c -4.271327,0 -7.731051,3.27668 -7.731051,7.30884 0.01031,0.462092 0.01337,0.978103 0.06088,1.55287 -0.675971,0.364475 -0.765289,1.793056 -0.162332,3.229969 0.232503,0.554079 0.55209,1.001902 0.872534,1.366525 0.01068,0.01218 0.02983,0.02953 0.04057,0.04141 0.07648,0.379648 0.1307,0.669122 0.223204,1.097361 0.28657,0.86954 1.473365,2.507183 2.516144,3.913232 0.103991,1.084665 0.107767,2.161822 -0.101451,3.395607 -3.00147,2.51867 -10.684816,3.645435 -10.67331,6.252888 l -0.142041,0.993841 30.193702,0 -0.142039,-0.993836 c -0.01225,-2.231633 -7.728935,-3.645431 -10.693603,-6.25289 -0.120037,-0.9988 -0.142271,-1.97704 -0.08117,-2.960804 0.948078,-1.479195 2.198891,-3.385401 2.516142,-4.348036 0.116597,-0.498523 0.173232,-0.834927 0.263788,-1.263 0.279967,-0.346109 0.544114,-0.749779 0.750785,-1.242295 0.572597,-1.364557 0.502422,-2.683396 -0.08117,-3.126444 0.04078,-0.592914 0.08441,-1.149652 0.101451,-1.656395 1.8e-5,-4.032159 -3.45971,-7.30884 -7.731036,-7.30884 z"
       inkscape:connector-curvature="0"
       id="path3994"
       style="opacity:0.6;fill:#ffffff;fill-opacity:1;stroke:none;display:inline;enable-background:new" />
  </g>
</svg>
