<?xml version="1.0" encoding="UTF-8" standalone="no"?>
<!-- Created with Inkscape (http://www.inkscape.org/) -->

<svg
   xmlns:dc="http://purl.org/dc/elements/1.1/"
   xmlns:cc="http://creativecommons.org/ns#"
   xmlns:rdf="http://www.w3.org/1999/02/22-rdf-syntax-ns#"
   xmlns:svg="http://www.w3.org/2000/svg"
   xmlns="http://www.w3.org/2000/svg"
   xmlns:sodipodi="http://sodipodi.sourceforge.net/DTD/sodipodi-0.dtd"
   xmlns:inkscape="http://www.inkscape.org/namespaces/inkscape"
   width="48px"
   height="48px"
   id="svg2985"
   version="1.1"
   inkscape:version="0.48.4 r9939"
   sodipodi:docname="New document 2">
  <defs
     id="defs2987" />
  <sodipodi:namedview
     id="base"
     pagecolor="#ffffff"
     bordercolor="#666666"
     borderopacity="1.0"
     inkscape:pageopacity="0.0"
     inkscape:pageshadow="2"
     inkscape:zoom="7"
     inkscape:cx="32.879767"
     inkscape:cy="24.393465"
     inkscape:current-layer="layer1"
     showgrid="true"
     inkscape:grid-bbox="true"
     inkscape:document-units="px"
     showguides="true"
     inkscape:guide-bbox="true"
     inkscape:window-width="1318"
     inkscape:window-height="748"
     inkscape:window-x="48"
     inkscape:window-y="-3"
     inkscape:window-maximized="1" />
  <metadata
     id="metadata2990">
    <rdf:RDF>
      <cc:Work
         rdf:about="">
        <dc:format>image/svg+xml</dc:format>
        <dc:type
           rdf:resource="http://purl.org/dc/dcmitype/StillImage" />
        <dc:title></dc:title>
      </cc:Work>
    </rdf:RDF>
  </metadata>
  <g
     id="layer1"
     inkscape:label="Layer 1"
     inkscape:groupmode="layer">
    <path
       style="fill:#333333;fill-opacity:1"
       d="m 24.120536,1.4107144 c -12.304706,0 -22.28354,10.1386706 -22.28354,22.6171256 0,12.478456 9.978834,22.583767 22.28354,22.583767 12.304706,0 22.28354,-10.105311 22.28354,-22.583767 0,-12.478455 -9.978834,-22.6171256 -22.28354,-22.6171256 z m -0.06672,4.7702787 c 9.743903,0 17.646695,8.0320729 17.646695,17.9135639 0,9.881492 -7.902792,17.880206 -17.646695,17.880206 -9.743903,0 -17.6466958,-7.998714 -17.6466958,-17.880206 0,-9.881491 7.9027928,-17.9135639 17.6466958,-17.9135639 z"
       id="path3004"
       inkscape:connector-curvature="0" />
    <path
       style="fill:#333333"
       d="m 16.648403,34.146004 c -0.805894,-0.413085 -0.7487,0.37225 -0.7487,-10.280527 0,-8.770603 0.01111,-9.431446 0.163696,-9.73689 0.220612,-0.441614 0.871509,-0.780029 1.358335,-0.706225 0.211581,0.03208 2.023154,0.973223 4.54076,2.359009 4.821995,2.654208 4.855622,2.672691 9.338057,5.1327 1.853753,1.017359 3.485347,1.957111 3.625763,2.088335 0.140416,0.131223 0.301674,0.379097 0.358351,0.550831 0.131504,0.398459 -0.0056,0.846789 -0.358351,1.172217 -0.140416,0.129524 -2.656755,1.554187 -5.591866,3.165921 -2.935111,1.611734 -6.735964,3.702781 -8.446339,4.646771 -1.842733,1.01704 -3.254136,1.738239 -3.464086,1.770079 -0.263244,0.03992 -0.462597,-0.0018 -0.77562,-0.162221 z"
       id="path3030"
       inkscape:connector-curvature="0"
       sodipodi:nodetypes="csssssssssssc" />
  </g>
</svg>
