<?xml version="1.0" encoding="UTF-8" standalone="no"?>
<!-- Created with Inkscape (http://www.inkscape.org/) -->

<svg
   xmlns:dc="http://purl.org/dc/elements/1.1/"
   xmlns:cc="http://creativecommons.org/ns#"
   xmlns:rdf="http://www.w3.org/1999/02/22-rdf-syntax-ns#"
   xmlns:svg="http://www.w3.org/2000/svg"
   xmlns="http://www.w3.org/2000/svg"
   xmlns:xlink="http://www.w3.org/1999/xlink"
   xmlns:sodipodi="http://sodipodi.sourceforge.net/DTD/sodipodi-0.dtd"
   xmlns:inkscape="http://www.inkscape.org/namespaces/inkscape"
   version="1.0"
   width="96"
   height="96"
   id="svg2408"
   inkscape:version="0.48.4 r9939"
   sodipodi:docname="user.svg">
  <sodipodi:namedview
     pagecolor="#ffffff"
     bordercolor="#666666"
     borderopacity="1"
     objecttolerance="10"
     gridtolerance="10"
     guidetolerance="10"
     inkscape:pageopacity="0"
     inkscape:pageshadow="2"
     inkscape:window-width="1242"
     inkscape:window-height="682"
     id="namedview65"
     showgrid="false"
     inkscape:zoom="2.4583333"
     inkscape:cx="-21.042112"
     inkscape:cy="52.994582"
     inkscape:window-x="79"
     inkscape:window-y="0"
     inkscape:window-maximized="0"
     inkscape:current-layer="layer1" />
  <defs
     id="defs2410">
    <linearGradient
       x1="45.447727"
       y1="92.539597"
       x2="45.447727"
       y2="7.0165396"
       id="ButtonShadow"
       gradientUnits="userSpaceOnUse"
       gradientTransform="scale(1.0058652,0.994169)">
      <stop
         id="stop3750"
         style="stop-color:#000000;stop-opacity:1"
         offset="0" />
      <stop
         id="stop3752"
         style="stop-color:#000000;stop-opacity:0.58823532"
         offset="1" />
    </linearGradient>
    <linearGradient
       id="linearGradient3737">
      <stop
         id="stop3739"
         style="stop-color:#ffffff;stop-opacity:1"
         offset="0" />
      <stop
         id="stop3741"
         style="stop-color:#ffffff;stop-opacity:0"
         offset="1" />
    </linearGradient>
    <linearGradient
       id="linearGradient3700">
      <stop
         id="stop3702"
         style="stop-color:#da8714;stop-opacity:1"
         offset="0" />
      <stop
         id="stop3704"
         style="stop-color:#f4d468;stop-opacity:1"
         offset="1" />
    </linearGradient>
    <filter
       color-interpolation-filters="sRGB"
       id="filter3174">
      <feGaussianBlur
         id="feGaussianBlur3176"
         stdDeviation="1.71" />
    </filter>
    <linearGradient
       x1="36.357143"
       y1="6"
       x2="36.357143"
       y2="63.893143"
       id="linearGradient3188"
       xlink:href="#linearGradient3737"
       gradientUnits="userSpaceOnUse" />
    <filter
       x="-0.192"
       y="-0.192"
       width="1.3839999"
       height="1.3839999"
       color-interpolation-filters="sRGB"
       id="filter3794">
      <feGaussianBlur
         id="feGaussianBlur3796"
         stdDeviation="5.28" />
    </filter>
    <linearGradient
       x1="48"
       y1="20.220806"
       x2="48"
       y2="138.66119"
       id="linearGradient3613"
       xlink:href="#linearGradient3737"
       gradientUnits="userSpaceOnUse" />
    <radialGradient
       cx="48"
       cy="90.171875"
       r="42"
       fx="48"
       fy="90.171875"
       id="radialGradient3619"
       xlink:href="#linearGradient3737"
       gradientUnits="userSpaceOnUse"
       gradientTransform="matrix(1.1573129,0,0,0.99590774,-7.5510206,0.19713193)" />
    <clipPath
       id="clipPath3613">
      <rect
         width="84"
         height="84"
         rx="6"
         ry="6"
         x="6"
         y="6"
         id="rect3615"
         style="fill:#ffffff;fill-opacity:1;fill-rule:nonzero;stroke:none" />
    </clipPath>
    <linearGradient
       x1="48"
       y1="90"
       x2="48"
       y2="5.9877172"
       id="linearGradient3617"
       xlink:href="#linearGradient3700"
       gradientUnits="userSpaceOnUse" />
    <linearGradient
       x1="45.447727"
       y1="92.539597"
       x2="45.447727"
       y2="7.0165396"
       id="ButtonShadow-0"
       gradientUnits="userSpaceOnUse"
       gradientTransform="matrix(1.0058652,0,0,0.994169,100,0)">
      <stop
         id="stop3750-8"
         style="stop-color:#000000;stop-opacity:1"
         offset="0" />
      <stop
         id="stop3752-5"
         style="stop-color:#000000;stop-opacity:0.58823532"
         offset="1" />
    </linearGradient>
    <linearGradient
       x1="32.251034"
       y1="6.1317081"
       x2="32.251034"
       y2="90.238609"
       id="linearGradient3780"
       xlink:href="#ButtonShadow-0"
       gradientUnits="userSpaceOnUse"
       gradientTransform="matrix(1.0238095,0,0,1.0119048,-1.1428571,-98.071429)" />
    <linearGradient
       x1="32.251034"
       y1="6.1317081"
       x2="32.251034"
       y2="90.238609"
       id="linearGradient3772"
       xlink:href="#ButtonShadow-0"
       gradientUnits="userSpaceOnUse"
       gradientTransform="matrix(1.0238095,0,0,1.0119048,-1.1428571,-98.071429)" />
    <linearGradient
       x1="32.251034"
       y1="6.1317081"
       x2="32.251034"
       y2="90.238609"
       id="linearGradient3725"
       xlink:href="#ButtonShadow-0"
       gradientUnits="userSpaceOnUse"
       gradientTransform="matrix(1.0238095,0,0,1.0119048,-1.1428571,-98.071429)" />
    <linearGradient
       x1="32.251034"
       y1="6.1317081"
       x2="32.251034"
       y2="90.238609"
       id="linearGradient3721"
       xlink:href="#ButtonShadow-0"
       gradientUnits="userSpaceOnUse"
       gradientTransform="translate(0,-97)" />
    <linearGradient
       x1="32.251034"
       y1="6.1317081"
       x2="32.251034"
       y2="90.238609"
       id="linearGradient3059"
       xlink:href="#ButtonShadow-0"
       gradientUnits="userSpaceOnUse"
       gradientTransform="matrix(1.0238095,0,0,1.0119048,-1.1428571,-98.071429)" />
    <linearGradient
       x1="56"
       y1="16"
       x2="56"
       y2="80"
       id="linearGradient3996"
       xlink:href="#linearGradient3853-5"
       gradientUnits="userSpaceOnUse"
       gradientTransform="matrix(0.58779071,0,0,0.59976762,-1.7139535,28.375257)" />
    <linearGradient
       id="linearGradient3853-5">
      <stop
         id="stop3855-0"
         style="stop-color:#000000;stop-opacity:1"
         offset="0" />
      <stop
         id="stop3857-4"
         style="stop-color:#313131;stop-opacity:1"
         offset="1" />
    </linearGradient>
    <linearGradient
       x1="56"
       y1="16"
       x2="56"
       y2="80"
       id="linearGradient3111"
       xlink:href="#linearGradient3853-5"
       gradientUnits="userSpaceOnUse"
       gradientTransform="matrix(0.88281208,0,0,0.89965143,5.6250204,11.562884)" />
    <linearGradient
       x1="56"
       y1="16"
       x2="56"
       y2="80"
       id="linearGradient4004"
       xlink:href="#linearGradient3853-5"
       gradientUnits="userSpaceOnUse"
       gradientTransform="matrix(0.58779071,0,0,0.59976762,41.286046,28.375257)" />
    <clipPath
       id="clipPath4097">
      <path
         d="m 12,76 c -3.324,0 -6,2.676 -6,6 l 0,72 c 0,3.324 2.676,6 6,6 l 72,0 c 3.324,0 6,-2.676 6,-6 l 0,-72 c 0,-3.324 -2.676,-6 -6,-6 l -72,0 z m 36,18 c 6.161551,0 11.156265,4.722076 11.15625,10.53125 -0.02459,0.73006 -0.09742,1.52079 -0.15625,2.375 0.841854,0.6383 0.950993,2.53409 0.125,4.5 -0.298129,0.70957 -0.689887,1.31386 -1.09375,1.8125 -0.13063,0.61672 -0.206804,1.09428 -0.375,1.8125 -0.457646,1.38687 -2.25736,4.11893 -3.625,6.25 -0.08814,1.41731 -0.04816,2.84228 0.125,4.28125 1.630607,1.43231 4.247302,2.62582 6.875,3.71875 1.665078,-0.6585 3.295977,-1.37077 4.34375,-2.25 0.20095,-1.18501 0.22488,-2.20822 0.125,-3.25 -1.001552,-1.35046 -2.16226,-2.91484 -2.4375,-3.75 -0.08885,-0.41131 -0.14529,-0.69786 -0.21875,-1.0625 -0.01032,-0.0115 -0.02099,-0.0195 -0.03125,-0.0313 -0.307775,-0.35021 -0.620439,-0.78033 -0.84375,-1.3125 -0.57912,-1.3801 -0.492997,-2.77493 0.15625,-3.125 -0.04563,-0.55204 -0.0526,-1.02493 -0.0625,-1.46875 0,-3.8727 3.335039,-7.0312 7.4375,-7.0312 4.10246,0 7.437517,3.1585 7.4375,7.03125 -0.01637,0.48671 -0.08583,1.02428 -0.125,1.59375 0.560519,0.42553 0.643709,1.68939 0.09375,3 -0.1985,0.47305 -0.449851,0.85508 -0.71875,1.1875 -0.08698,0.41115 -0.138013,0.73994 -0.25,1.21875 -0.304709,0.92458 -1.526904,2.73554 -2.4375,4.15625 -0.05869,0.94487 -0.02154,1.88444 0.09375,2.84375 2.84746,2.50437 10.26949,3.8566 10.28125,6 L 84,134 69.4375,134 c 0.07629,0.18396 0.1239,0.37077 0.125,0.5625 l 0.21875,1.4375 -43.5625,0 0.21875,-1.4375 c -8.5e-4,-0.19234 0.0388,-0.38079 0.09375,-0.5625 L 12,134 l 0.125,-0.96875 c -0.01105,-2.50437 7.367193,-3.5809 10.25,-6 0.20095,-1.18501 0.22488,-2.20822 0.125,-3.25 -1.001552,-1.35046 -2.16226,-2.91484 -2.4375,-3.75 -0.08885,-0.41131 -0.14529,-0.69786 -0.21875,-1.0625 -0.01032,-0.0115 -0.02099,-0.0195 -0.03125,-0.0313 -0.307775,-0.35021 -0.620439,-0.78033 -0.84375,-1.3125 -0.57912,-1.3801 -0.492997,-2.77493 0.15625,-3.125 -0.04563,-0.55204 -0.0526,-1.02493 -0.0625,-1.46875 0,-3.8727 3.335039,-7.0312 7.4375,-7.0312 4.10246,0 7.437517,3.1585 7.4375,7.03125 -0.01637,0.48671 -0.08583,1.02428 -0.125,1.59375 0.560519,0.42553 0.643709,1.68939 0.09375,3 -0.1985,0.47305 -0.449851,0.85508 -0.71875,1.1875 -0.08698,0.41115 -0.138013,0.73994 -0.25,1.21875 -0.304709,0.92458 -1.526904,2.73554 -2.4375,4.15625 -0.05869,0.94487 -0.02154,1.88444 0.09375,2.84375 0.943649,0.82995 2.395521,1.53906 3.90625,2.1875 2.75881,-1.07769 5.575089,-2.20017 7.3125,-3.65625 0.301816,-1.77751 0.30626,-3.34357 0.15625,-4.90625 -1.504247,-2.02569 -3.211613,-4.37225 -3.625,-5.625 -0.13344,-0.61696 -0.202159,-1.04679 -0.3125,-1.59375 -0.01552,-0.0171 -0.04709,-0.0449 -0.0625,-0.0625 -0.462251,-0.52531 -0.945855,-1.17049 -1.28125,-1.96875 -0.869788,-2.07016 -0.725114,-4.0999 0.25,-4.625 -0.06853,-0.82806 -0.07877,-1.58427 -0.09375,-2.25 C 36.84375,98.722124 41.838449,94 48,94 z"
         inkscape:connector-curvature="0"
         id="path4099"
         style="fill:url(#linearGradient4101);fill-opacity:1;fill-rule:nonzero;stroke:none" />
    </clipPath>
    <filter
       x="-0.19"
       y="-0.32571429"
       width="1.38"
       height="1.6514286"
       color-interpolation-filters="sRGB"
       id="filter4103">
      <feGaussianBlur
         id="feGaussianBlur4105"
         stdDeviation="5.7" />
    </filter>
    <linearGradient
       inkscape:collect="always"
       xlink:href="#linearGradient3853-5"
       id="linearGradient3820"
       gradientUnits="userSpaceOnUse"
       gradientTransform="matrix(0.58779071,0,0,0.59976762,41.286046,28.375257)"
       x1="56"
       y1="16"
       x2="56"
       y2="80" />
    <linearGradient
       inkscape:collect="always"
       xlink:href="#linearGradient3853-5"
       id="linearGradient3824"
       gradientUnits="userSpaceOnUse"
       gradientTransform="matrix(0.58779071,0,0,0.59976762,-1.7139535,28.375257)"
       x1="56"
       y1="16"
       x2="56"
       y2="80" />
  </defs>
  <metadata
     id="metadata2413">
    <rdf:RDF>
      <cc:Work
         rdf:about="">
        <dc:format>image/svg+xml</dc:format>
        <dc:type
           rdf:resource="http://purl.org/dc/dcmitype/StillImage" />
      </cc:Work>
    </rdf:RDF>
  </metadata>
  <g
     id="layer2"
     style="display:none">
    <rect
       width="86"
       height="85"
       rx="6"
       ry="6"
       x="5"
       y="7"
       id="rect3745"
       style="opacity:0.9;fill:url(#ButtonShadow);fill-opacity:1;fill-rule:nonzero;stroke:none;filter:url(#filter3174)" />
  </g>
  <g
     id="layer1"
     transform="matrix(1.1646489,0,0,1.1646489,-7.9031477,-7.9031477)">
    <rect
       width="84"
       height="84"
       rx="0"
       ry="0"
       x="6"
       y="6"
       id="rect2419"
       style="fill:#00a2e3;fill-opacity:1;fill-rule:nonzero;stroke:none" />
  </g>
  <g
     id="layer5"
     style="display:none">
    <rect
       width="66"
       height="66"
       rx="12"
       ry="12"
       x="15"
       y="15"
       clip-path="url(#clipPath3613)"
       id="rect3171"
       style="opacity:0.1;fill:url(#linearGradient3613);fill-opacity:1;fill-rule:nonzero;stroke:#ffffff;stroke-width:0.5;stroke-linecap:round;stroke-linejoin:miter;stroke-miterlimit:4;stroke-opacity:1;stroke-dasharray:none;stroke-dashoffset:0;filter:url(#filter3794)" />
  </g>
  <g
     id="layer3"
     transform="matrix(1.0742831,0,0,1.0742831,-3.5655887,4.3440455)"
     style="fill:#ffffff">
    <path
       d="m 48,16.615032 c -8.915168,0 -16.136344,6.830403 -16.136344,15.235646 0.02168,0.963253 0.02791,2.038906 0.127067,3.237034 -1.410895,0.759766 -1.59732,3.737716 -0.338821,6.733034 0.485284,1.155007 1.15233,2.088515 1.821162,2.848591 0.0223,0.02541 0.06225,0.06157 0.0847,0.08631 0.159653,0.791395 0.272802,1.394817 0.465877,2.287503 0.598131,1.812602 3.075223,5.226351 5.251723,8.15733 0.21705,2.261039 0.224936,4.506426 -0.211763,7.078314 -6.264703,5.250292 -22.301483,7.599091 -22.277467,13.03446 l -0.296474,2.071716 63.020675,0 -0.296468,-2.071702 C 79.188309,70.661317 63.081941,67.714185 56.894048,62.278803 56.643508,60.196756 56.5971,58.157566 56.724634,56.10686 c 1.978843,-3.083458 4.589553,-7.057039 5.251722,-9.0637 0.243364,-1.039197 0.361574,-1.740448 0.550583,-2.632787 0.584351,-0.721482 1.135683,-1.562953 1.567047,-2.589627 1.195132,-2.844487 1.048665,-5.593674 -0.169416,-6.517231 0.08512,-1.235959 0.176176,-2.396506 0.211763,-3.452837 C 64.136354,23.445438 56.915168,16.615032 48,16.615032 z"
       inkscape:connector-curvature="0"
       id="path3798-8"
       style="fill:#ffffff;fill-opacity:1;stroke:none;display:inline;enable-background:new" />
  </g>
</svg>
