<?xml version="1.0" encoding="UTF-8" standalone="no"?>
<!-- Created with Inkscape (http://www.inkscape.org/) -->

<svg
   xmlns:dc="http://purl.org/dc/elements/1.1/"
   xmlns:cc="http://creativecommons.org/ns#"
   xmlns:rdf="http://www.w3.org/1999/02/22-rdf-syntax-ns#"
   xmlns:svg="http://www.w3.org/2000/svg"
   xmlns="http://www.w3.org/2000/svg"
   xmlns:xlink="http://www.w3.org/1999/xlink"
   xmlns:sodipodi="http://sodipodi.sourceforge.net/DTD/sodipodi-0.dtd"
   xmlns:inkscape="http://www.inkscape.org/namespaces/inkscape"
   version="1.0"
   width="96"
   height="96"
   id="svg2408"
   inkscape:version="0.48.4 r9939"
   sodipodi:docname="group.svg">
  <sodipodi:namedview
     pagecolor="#ffffff"
     bordercolor="#666666"
     borderopacity="1"
     objecttolerance="10"
     gridtolerance="10"
     guidetolerance="10"
     inkscape:pageopacity="0"
     inkscape:pageshadow="2"
     inkscape:window-width="1242"
     inkscape:window-height="682"
     id="namedview65"
     showgrid="false"
     inkscape:zoom="3.4766083"
     inkscape:cx="0.89738087"
     inkscape:cy="47.285142"
     inkscape:window-x="48"
     inkscape:window-y="0"
     inkscape:window-maximized="0"
     inkscape:current-layer="layer3" />
  <defs
     id="defs2410">
    <linearGradient
       x1="45.447727"
       y1="92.539597"
       x2="45.447727"
       y2="7.0165396"
       id="ButtonShadow"
       gradientUnits="userSpaceOnUse"
       gradientTransform="scale(1.0058652,0.994169)">
      <stop
         id="stop3750"
         style="stop-color:#000000;stop-opacity:1"
         offset="0" />
      <stop
         id="stop3752"
         style="stop-color:#000000;stop-opacity:0.58823532"
         offset="1" />
    </linearGradient>
    <linearGradient
       id="linearGradient3737">
      <stop
         id="stop3739"
         style="stop-color:#ffffff;stop-opacity:1"
         offset="0" />
      <stop
         id="stop3741"
         style="stop-color:#ffffff;stop-opacity:0"
         offset="1" />
    </linearGradient>
    <linearGradient
       id="linearGradient3700">
      <stop
         id="stop3702"
         style="stop-color:#da8714;stop-opacity:1"
         offset="0" />
      <stop
         id="stop3704"
         style="stop-color:#f4d468;stop-opacity:1"
         offset="1" />
    </linearGradient>
    <filter
       color-interpolation-filters="sRGB"
       id="filter3174">
      <feGaussianBlur
         id="feGaussianBlur3176"
         stdDeviation="1.71" />
    </filter>
    <linearGradient
       x1="36.357143"
       y1="6"
       x2="36.357143"
       y2="63.893143"
       id="linearGradient3188"
       xlink:href="#linearGradient3737"
       gradientUnits="userSpaceOnUse" />
    <filter
       x="-0.192"
       y="-0.192"
       width="1.3839999"
       height="1.3839999"
       color-interpolation-filters="sRGB"
       id="filter3794">
      <feGaussianBlur
         id="feGaussianBlur3796"
         stdDeviation="5.28" />
    </filter>
    <linearGradient
       x1="48"
       y1="20.220806"
       x2="48"
       y2="138.66119"
       id="linearGradient3613"
       xlink:href="#linearGradient3737"
       gradientUnits="userSpaceOnUse" />
    <radialGradient
       cx="48"
       cy="90.171875"
       r="42"
       fx="48"
       fy="90.171875"
       id="radialGradient3619"
       xlink:href="#linearGradient3737"
       gradientUnits="userSpaceOnUse"
       gradientTransform="matrix(1.1573129,0,0,0.99590774,-7.5510206,0.19713193)" />
    <clipPath
       id="clipPath3613">
      <rect
         width="84"
         height="84"
         rx="6"
         ry="6"
         x="6"
         y="6"
         id="rect3615"
         style="fill:#ffffff;fill-opacity:1;fill-rule:nonzero;stroke:none" />
    </clipPath>
    <linearGradient
       x1="48"
       y1="90"
       x2="48"
       y2="5.9877172"
       id="linearGradient3617"
       xlink:href="#linearGradient3700"
       gradientUnits="userSpaceOnUse" />
    <linearGradient
       x1="45.447727"
       y1="92.539597"
       x2="45.447727"
       y2="7.0165396"
       id="ButtonShadow-0"
       gradientUnits="userSpaceOnUse"
       gradientTransform="matrix(1.0058652,0,0,0.994169,100,0)">
      <stop
         id="stop3750-8"
         style="stop-color:#000000;stop-opacity:1"
         offset="0" />
      <stop
         id="stop3752-5"
         style="stop-color:#000000;stop-opacity:0.58823532"
         offset="1" />
    </linearGradient>
    <linearGradient
       x1="32.251034"
       y1="6.1317081"
       x2="32.251034"
       y2="90.238609"
       id="linearGradient3780"
       xlink:href="#ButtonShadow-0"
       gradientUnits="userSpaceOnUse"
       gradientTransform="matrix(1.0238095,0,0,1.0119048,-1.1428571,-98.071429)" />
    <linearGradient
       x1="32.251034"
       y1="6.1317081"
       x2="32.251034"
       y2="90.238609"
       id="linearGradient3772"
       xlink:href="#ButtonShadow-0"
       gradientUnits="userSpaceOnUse"
       gradientTransform="matrix(1.0238095,0,0,1.0119048,-1.1428571,-98.071429)" />
    <linearGradient
       x1="32.251034"
       y1="6.1317081"
       x2="32.251034"
       y2="90.238609"
       id="linearGradient3725"
       xlink:href="#ButtonShadow-0"
       gradientUnits="userSpaceOnUse"
       gradientTransform="matrix(1.0238095,0,0,1.0119048,-1.1428571,-98.071429)" />
    <linearGradient
       x1="32.251034"
       y1="6.1317081"
       x2="32.251034"
       y2="90.238609"
       id="linearGradient3721"
       xlink:href="#ButtonShadow-0"
       gradientUnits="userSpaceOnUse"
       gradientTransform="translate(0,-97)" />
    <linearGradient
       x1="32.251034"
       y1="6.1317081"
       x2="32.251034"
       y2="90.238609"
       id="linearGradient3059"
       xlink:href="#ButtonShadow-0"
       gradientUnits="userSpaceOnUse"
       gradientTransform="matrix(1.0238095,0,0,1.0119048,-1.1428571,-98.071429)" />
    <linearGradient
       x1="56"
       y1="16"
       x2="56"
       y2="80"
       id="linearGradient3996"
       xlink:href="#linearGradient3853-5"
       gradientUnits="userSpaceOnUse"
       gradientTransform="matrix(0.58779071,0,0,0.59976762,-1.7139535,28.375257)" />
    <linearGradient
       id="linearGradient3853-5">
      <stop
         id="stop3855-0"
         style="stop-color:#000000;stop-opacity:1"
         offset="0" />
      <stop
         id="stop3857-4"
         style="stop-color:#313131;stop-opacity:1"
         offset="1" />
    </linearGradient>
    <linearGradient
       x1="56"
       y1="16"
       x2="56"
       y2="80"
       id="linearGradient3111"
       xlink:href="#linearGradient3853-5"
       gradientUnits="userSpaceOnUse"
       gradientTransform="matrix(0.88281208,0,0,0.89965143,5.6250204,11.562884)" />
    <linearGradient
       x1="56"
       y1="16"
       x2="56"
       y2="80"
       id="linearGradient4004"
       xlink:href="#linearGradient3853-5"
       gradientUnits="userSpaceOnUse"
       gradientTransform="matrix(0.58779071,0,0,0.59976762,41.286046,28.375257)" />
    <clipPath
       id="clipPath4097">
      <path
         d="m 12,76 c -3.324,0 -6,2.676 -6,6 l 0,72 c 0,3.324 2.676,6 6,6 l 72,0 c 3.324,0 6,-2.676 6,-6 l 0,-72 c 0,-3.324 -2.676,-6 -6,-6 l -72,0 z m 36,18 c 6.161551,0 11.156265,4.722076 11.15625,10.53125 -0.02459,0.73006 -0.09742,1.52079 -0.15625,2.375 0.841854,0.6383 0.950993,2.53409 0.125,4.5 -0.298129,0.70957 -0.689887,1.31386 -1.09375,1.8125 -0.13063,0.61672 -0.206804,1.09428 -0.375,1.8125 -0.457646,1.38687 -2.25736,4.11893 -3.625,6.25 -0.08814,1.41731 -0.04816,2.84228 0.125,4.28125 1.630607,1.43231 4.247302,2.62582 6.875,3.71875 1.665078,-0.6585 3.295977,-1.37077 4.34375,-2.25 0.20095,-1.18501 0.22488,-2.20822 0.125,-3.25 -1.001552,-1.35046 -2.16226,-2.91484 -2.4375,-3.75 -0.08885,-0.41131 -0.14529,-0.69786 -0.21875,-1.0625 -0.01032,-0.0115 -0.02099,-0.0195 -0.03125,-0.0313 -0.307775,-0.35021 -0.620439,-0.78033 -0.84375,-1.3125 -0.57912,-1.3801 -0.492997,-2.77493 0.15625,-3.125 -0.04563,-0.55204 -0.0526,-1.02493 -0.0625,-1.46875 0,-3.8727 3.335039,-7.0312 7.4375,-7.0312 4.10246,0 7.437517,3.1585 7.4375,7.03125 -0.01637,0.48671 -0.08583,1.02428 -0.125,1.59375 0.560519,0.42553 0.643709,1.68939 0.09375,3 -0.1985,0.47305 -0.449851,0.85508 -0.71875,1.1875 -0.08698,0.41115 -0.138013,0.73994 -0.25,1.21875 -0.304709,0.92458 -1.526904,2.73554 -2.4375,4.15625 -0.05869,0.94487 -0.02154,1.88444 0.09375,2.84375 2.84746,2.50437 10.26949,3.8566 10.28125,6 L 84,134 69.4375,134 c 0.07629,0.18396 0.1239,0.37077 0.125,0.5625 l 0.21875,1.4375 -43.5625,0 0.21875,-1.4375 c -8.5e-4,-0.19234 0.0388,-0.38079 0.09375,-0.5625 L 12,134 l 0.125,-0.96875 c -0.01105,-2.50437 7.367193,-3.5809 10.25,-6 0.20095,-1.18501 0.22488,-2.20822 0.125,-3.25 -1.001552,-1.35046 -2.16226,-2.91484 -2.4375,-3.75 -0.08885,-0.41131 -0.14529,-0.69786 -0.21875,-1.0625 -0.01032,-0.0115 -0.02099,-0.0195 -0.03125,-0.0313 -0.307775,-0.35021 -0.620439,-0.78033 -0.84375,-1.3125 -0.57912,-1.3801 -0.492997,-2.77493 0.15625,-3.125 -0.04563,-0.55204 -0.0526,-1.02493 -0.0625,-1.46875 0,-3.8727 3.335039,-7.0312 7.4375,-7.0312 4.10246,0 7.437517,3.1585 7.4375,7.03125 -0.01637,0.48671 -0.08583,1.02428 -0.125,1.59375 0.560519,0.42553 0.643709,1.68939 0.09375,3 -0.1985,0.47305 -0.449851,0.85508 -0.71875,1.1875 -0.08698,0.41115 -0.138013,0.73994 -0.25,1.21875 -0.304709,0.92458 -1.526904,2.73554 -2.4375,4.15625 -0.05869,0.94487 -0.02154,1.88444 0.09375,2.84375 0.943649,0.82995 2.395521,1.53906 3.90625,2.1875 2.75881,-1.07769 5.575089,-2.20017 7.3125,-3.65625 0.301816,-1.77751 0.30626,-3.34357 0.15625,-4.90625 -1.504247,-2.02569 -3.211613,-4.37225 -3.625,-5.625 -0.13344,-0.61696 -0.202159,-1.04679 -0.3125,-1.59375 -0.01552,-0.0171 -0.04709,-0.0449 -0.0625,-0.0625 -0.462251,-0.52531 -0.945855,-1.17049 -1.28125,-1.96875 -0.869788,-2.07016 -0.725114,-4.0999 0.25,-4.625 -0.06853,-0.82806 -0.07877,-1.58427 -0.09375,-2.25 C 36.84375,98.722124 41.838449,94 48,94 z"
         inkscape:connector-curvature="0"
         id="path4099"
         style="fill:url(#linearGradient4101);fill-opacity:1;fill-rule:nonzero;stroke:none" />
    </clipPath>
    <filter
       x="-0.19"
       y="-0.32571429"
       width="1.38"
       height="1.6514286"
       color-interpolation-filters="sRGB"
       id="filter4103">
      <feGaussianBlur
         id="feGaussianBlur4105"
         stdDeviation="5.7" />
    </filter>
    <linearGradient
       inkscape:collect="always"
       xlink:href="#linearGradient3853-5"
       id="linearGradient3820"
       gradientUnits="userSpaceOnUse"
       gradientTransform="matrix(0.58779071,0,0,0.59976762,41.286046,28.375257)"
       x1="56"
       y1="16"
       x2="56"
       y2="80" />
    <linearGradient
       inkscape:collect="always"
       xlink:href="#linearGradient3853-5"
       id="linearGradient3822"
       gradientUnits="userSpaceOnUse"
       gradientTransform="matrix(0.88281208,0,0,0.89965143,5.6250204,11.562884)"
       x1="56"
       y1="16"
       x2="56"
       y2="80" />
    <linearGradient
       inkscape:collect="always"
       xlink:href="#linearGradient3853-5"
       id="linearGradient3824"
       gradientUnits="userSpaceOnUse"
       gradientTransform="matrix(0.58779071,0,0,0.59976762,-1.7139535,28.375257)"
       x1="56"
       y1="16"
       x2="56"
       y2="80" />
  </defs>
  <metadata
     id="metadata2413">
    <rdf:RDF>
      <cc:Work
         rdf:about="">
        <dc:format>image/svg+xml</dc:format>
        <dc:type
           rdf:resource="http://purl.org/dc/dcmitype/StillImage" />
      </cc:Work>
    </rdf:RDF>
  </metadata>
  <g
     id="layer2"
     style="display:none">
    <rect
       width="86"
       height="85"
       rx="6"
       ry="6"
       x="5"
       y="7"
       id="rect3745"
       style="opacity:0.9;fill:url(#ButtonShadow);fill-opacity:1;fill-rule:nonzero;stroke:none;filter:url(#filter3174)" />
  </g>
  <g
     id="layer1"
     transform="matrix(1.1646489,0,0,1.1646489,-7.9031477,-7.9031477)">
    <rect
       width="84"
       height="84"
       rx="0"
       ry="0"
       x="6"
       y="6"
       id="rect2419"
       style="fill:#ffa900;fill-opacity:1;fill-rule:nonzero;stroke:none" />
  </g>
  <g
     id="layer5"
     style="display:none">
    <rect
       width="66"
       height="66"
       rx="12"
       ry="12"
       x="15"
       y="15"
       clip-path="url(#clipPath3613)"
       id="rect3171"
       style="opacity:0.1;fill:url(#linearGradient3613);fill-opacity:1;fill-rule:nonzero;stroke:#ffffff;stroke-width:0.5;stroke-linecap:round;stroke-linejoin:miter;stroke-miterlimit:4;stroke-opacity:1;stroke-dasharray:none;stroke-dashoffset:0;filter:url(#filter3794)" />
  </g>
  <g
     id="layer3"
     transform="matrix(1.1646489,0,0,1.1646489,-7.9031477,-7.9031477)">
    <path
       d="m 48,94 c -6.161551,0 -11.15625,4.722124 -11.15625,10.53125 0.01498,0.66573 0.02522,1.42194 0.09375,2.25 -0.975114,0.5251 -1.119788,2.55484 -0.25,4.625 0.335395,0.79826 0.818999,1.44344 1.28125,1.96875 0.01541,0.0176 0.04698,0.0454 0.0625,0.0625 0.110341,0.54696 0.17906,0.97679 0.3125,1.59375 0.413387,1.25275 2.120753,3.59931 3.625,5.625 0.15001,1.56268 0.145566,3.12874 -0.15625,4.90625 -1.737411,1.45608 -4.55369,2.57856 -7.3125,3.65625 -1.510729,-0.64844 -2.962601,-1.35755 -3.90625,-2.1875 -0.115291,-0.95931 -0.152436,-1.89888 -0.09375,-2.84375 0.910596,-1.42071 2.132791,-3.23167 2.4375,-4.15625 0.111987,-0.47881 0.163024,-0.8076 0.25,-1.21875 0.268899,-0.33242 0.52025,-0.71445 0.71875,-1.1875 0.549959,-1.31061 0.466769,-2.57447 -0.09375,-3 0.03917,-0.56947 0.10863,-1.10704 0.125,-1.59375 C 33.937517,109.1585 30.60246,106 26.5,106 c -4.102461,0 -7.4375,3.1585 -7.4375,7.03125 0.0099,0.44382 0.01687,0.91671 0.0625,1.46875 -0.649247,0.35007 -0.73537,1.7449 -0.15625,3.125 0.223311,0.53217 0.535975,0.96229 0.84375,1.3125 0.01026,0.0117 0.02093,0.0198 0.03125,0.0313 0.07346,0.36464 0.129903,0.65119 0.21875,1.0625 0.27524,0.83516 1.435948,2.39954 2.4375,3.75 0.09988,1.04178 0.07595,2.06499 -0.125,3.25 -2.882807,2.4191 -10.261052,3.49563 -10.25,6 L 12,134 l 14.53125,0 c -0.05495,0.18171 -0.0946,0.37016 -0.09375,0.5625 L 26.21875,136 l 43.5625,0 -0.21875,-1.4375 C 69.5614,134.37077 69.51379,134.18396 69.4375,134 L 84,134 83.875,133.03125 c -0.01176,-2.1434 -7.43379,-3.49563 -10.28125,-6 -0.115291,-0.95931 -0.152436,-1.89888 -0.09375,-2.84375 0.910596,-1.42071 2.132791,-3.23167 2.4375,-4.15625 0.111987,-0.47881 0.163024,-0.8076 0.25,-1.21875 0.268899,-0.33242 0.52025,-0.71445 0.71875,-1.1875 0.549959,-1.31061 0.466769,-2.57447 -0.09375,-3 0.03917,-0.56947 0.10863,-1.10704 0.125,-1.59375 C 76.937517,109.1585 73.60246,106 69.5,106 c -4.102461,0 -7.4375,3.1585 -7.4375,7.03125 0.0099,0.44382 0.01687,0.91671 0.0625,1.46875 -0.649247,0.35007 -0.73537,1.7449 -0.15625,3.125 0.223311,0.53217 0.535975,0.96229 0.84375,1.3125 0.01026,0.0117 0.02093,0.0198 0.03125,0.0313 0.07346,0.36464 0.129903,0.65119 0.21875,1.0625 0.27524,0.83516 1.435948,2.39954 2.4375,3.75 0.09988,1.04178 0.07595,2.06499 -0.125,3.25 -1.047773,0.87923 -2.678672,1.5915 -4.34375,2.25 -2.627698,-1.09293 -5.244393,-2.28644 -6.875,-3.71875 -0.173156,-1.43897 -0.213143,-2.86394 -0.125,-4.28125 1.36764,-2.13107 3.167354,-4.86313 3.625,-6.25 0.168196,-0.71822 0.24437,-1.19578 0.375,-1.8125 0.403863,-0.49864 0.795621,-1.10293 1.09375,-1.8125 0.825993,-1.96591 0.716854,-3.8617 -0.125,-4.5 0.05883,-0.85421 0.131655,-1.64494 0.15625,-2.375 C 59.156265,98.722126 54.161551,94 48,94 z"
       inkscape:connector-curvature="0"
       transform="translate(0,-68)"
       clip-path="url(#clipPath4097)"
       id="path4049"
       style="opacity:0.5;fill:#ffffff;fill-opacity:1;stroke:none;display:inline;filter:url(#filter4103);enable-background:new" />
    <path
       d="m 69.500001,38 c -4.102461,0 -7.425405,3.147137 -7.425405,7.019887 0.0099,0.443823 0.01284,0.939434 0.05847,1.491477 -0.649247,0.350066 -0.735034,1.722168 -0.155914,3.102273 0.223311,0.532174 0.530263,0.962292 0.838038,1.3125 0.01026,0.0117 0.02865,0.02836 0.03897,0.03977 0.07346,0.364638 0.125533,0.642668 0.21438,1.053977 0.27524,0.835163 1.415116,2.408062 2.416668,3.758523 0.09988,1.041783 0.103507,2.076355 -0.09744,3.261362 -2.882807,2.419095 -10.262394,3.501314 -10.251342,6.005682 L 55,66 84,66 83.863576,65.045455 c -0.01176,-2.143405 -7.423373,-3.501309 -10.270833,-6.005683 -0.115291,-0.959312 -0.136646,-1.898878 -0.07796,-2.843749 0.910596,-1.420715 2.111958,-3.25156 2.416667,-4.176137 0.111987,-0.478814 0.166383,-0.801919 0.253359,-1.213068 0.268899,-0.332425 0.522603,-0.720136 0.721103,-1.193181 0.549959,-1.310609 0.482559,-2.577308 -0.07796,-3.002841 0.03917,-0.569473 0.08107,-1.1042 0.09744,-1.590909 C 76.925409,41.147138 73.602461,38 69.500001,38 z"
       inkscape:connector-curvature="0"
       id="path4002"
       style="opacity:0.6;fill:url(#linearGradient3820);fill-opacity:1;stroke:none;display:inline;enable-background:new" />
    <path
       d="m 48,26 c -6.161551,0 -11.152331,4.720705 -11.152331,10.529831 0.01498,0.665734 0.01929,1.409151 0.08782,2.237215 -0.975114,0.525098 -1.103958,2.583252 -0.23417,4.65341 0.335395,0.798261 0.796411,1.443438 1.258662,1.96875 0.01541,0.01756 0.04302,0.04255 0.05854,0.05965 0.110341,0.546958 0.188542,0.964002 0.321982,1.580965 0.413387,1.252746 2.125383,3.612094 3.62963,5.637785 0.15001,1.562675 0.15546,3.114532 -0.146356,4.892044 -4.329732,3.628641 -15.413251,5.251969 -15.396653,9.008522 L 26.222222,68 69.777777,68 69.572879,66.568182 C 69.555214,63.353075 58.4236,61.31622 54.146954,57.559658 c -0.173156,-1.438968 -0.20523,-2.848316 -0.117087,-4.265623 1.36764,-2.131074 3.171983,-4.87734 3.629629,-6.264206 0.168196,-0.718221 0.249895,-1.202878 0.380525,-1.819601 0.403863,-0.498639 0.784906,-1.080206 1.083035,-1.789772 0.825993,-1.965914 0.724765,-3.865963 -0.117089,-4.504262 0.05883,-0.85421 0.121761,-1.6563 0.146356,-2.386363 C 59.152338,30.720707 54.161551,26 48,26 z"
       inkscape:connector-curvature="0"
       id="path3798-8"
       style="fill:url(#linearGradient3822);fill-opacity:1;stroke:none;display:inline;enable-background:new" />
    <path
       d="m 26.500001,38 c -4.102461,0 -7.425405,3.147137 -7.425405,7.019887 0.0099,0.443823 0.01284,0.939434 0.05847,1.491477 -0.649247,0.350066 -0.735034,1.722168 -0.155914,3.102273 0.223311,0.532174 0.530263,0.962292 0.838038,1.3125 0.01026,0.0117 0.02865,0.02836 0.03897,0.03977 0.07346,0.364638 0.125533,0.642668 0.21438,1.053977 0.27524,0.835163 1.415116,2.408062 2.416668,3.758523 0.09988,1.041783 0.103507,2.076355 -0.09744,3.261362 -2.882807,2.419095 -10.262394,3.501314 -10.251342,6.005682 L 12,66 41,66 40.863576,65.045455 c -0.01176,-2.143405 -7.423373,-3.501309 -10.270833,-6.005683 -0.115291,-0.959312 -0.136646,-1.898878 -0.07796,-2.843749 0.910596,-1.420715 2.111958,-3.25156 2.416667,-4.176137 0.111987,-0.478814 0.166383,-0.801919 0.253359,-1.213068 0.268899,-0.332425 0.522603,-0.720136 0.721103,-1.193181 0.549959,-1.310609 0.482559,-2.577308 -0.07796,-3.002841 0.03917,-0.569473 0.08107,-1.1042 0.09744,-1.590909 C 33.925409,41.147138 30.602461,38 26.500001,38 z"
       inkscape:connector-curvature="0"
       id="path3994"
       style="opacity:0.6;fill:url(#linearGradient3824);fill-opacity:1;stroke:none;display:inline;enable-background:new" />
  </g>
</svg>
